<?xml version="1.0" encoding="UTF-8"?>
<!DOCTYPE svg PUBLIC "-//W3C//DTD SVG 1.1//EN" "http://www.w3.org/Graphics/SVG/1.1/DTD/svg11.dtd">
<!-- Creator: CorelDRAW 2018 (64-Bit) -->
<svg xmlns="http://www.w3.org/2000/svg" xml:space="preserve" width="297mm" height="156mm" version="1.1" style="shape-rendering:geometricPrecision; text-rendering:geometricPrecision; image-rendering:optimizeQuality; fill-rule:evenodd; clip-rule:evenodd"
viewBox="0 0 29700 15600"
 xmlns:xlink="http://www.w3.org/1999/xlink">
 <defs>
  <style type="text/css">
   <![CDATA[
    .str0 {stroke:#2B2A29;stroke-width:20;stroke-miterlimit:22.9256}
    .fil25 {fill:#D9DADA}
    .fil4 {fill:#727271}
    .fil15 {fill:#5B5B5B}
    .fil0 {fill:#434242}
    .fil10 {fill:#2B2A29}
    .fil11 {fill:#5B5A50}
    .fil9 {fill:#86776F}
    .fil17 {fill:#86755D}
    .fil8 {fill:#748187}
    .fil7 {fill:#4E565A}
    .fil55 {fill:#505451}
    .fil23 {fill:#687974}
    .fil42 {fill:#69AFCC}
    .fil33 {fill:#6A8AB1}
    .fil31 {fill:#71535C}
    .fil54 {fill:#737474}
    .fil26 {fill:#78B5CE}
    .fil5 {fill:#7B7B7E}
    .fil12 {fill:#818285}
    .fil51 {fill:#829FAA}
    .fil53 {fill:#887DA7}
    .fil32 {fill:#887FA8}
    .fil38 {fill:#88ABB7}
    .fil49 {fill:#8B86AC}
    .fil45 {fill:#8D95BB}
    .fil29 {fill:#8EA1CB}
    .fil14 {fill:#929BA0}
    .fil30 {fill:#9399B8}
    .fil1 {fill:#999889}
    .fil3 {fill:#9C9793}
    .fil50 {fill:#9E9C8C}
    .fil39 {fill:#A16464}
    .fil37 {fill:#A3B5BA}
    .fil48 {fill:#ABB1B4}
    .fil44 {fill:#AC9578}
    .fil34 {fill:#AD9376}
    .fil24 {fill:#B1C0C9}
    .fil47 {fill:#B2B5AD}
    .fil6 {fill:#B9BBBB}
    .fil2 {fill:#BBC1B9}
    .fil16 {fill:#BDC4BD}
    .fil28 {fill:#C3896E}
    .fil21 {fill:#C46558}
    .fil43 {fill:#C7CDC9}
    .fil40 {fill:#C7CEC9}
    .fil35 {fill:#DBBD7A}
    .fil20 {fill:#DCCA98}
    .fil41 {fill:#DDD09C}
    .fil18 {fill:#E0D9A9}
    .fil46 {fill:#E3E1B5}
    .fil19 {fill:#E4E4E4}
    .fil27 {fill:#E5E4B6}
    .fil36 {fill:#EAE4DB}
    .fil22 {fill:#F1EBD4}
    .fil52 {fill:#F2E9EA}
    .fil13 {fill:#F2F1F2}
   ]]>
  </style>
 </defs>
 <g id="Слой_x0020_1">
  <metadata id="CorelCorpID_0Corel-Layer"/>
  <rect class="fil0 str0" x="-104.25" y="-9.97" width="30247.19" height="15554.99"/>
  <path class="fil1" d="M28174.57 12718.27c42.25,-53.27 -20.77,-1.24 65.01,-70.21 137.34,-110.39 994.79,-63.78 1169.95,-46.06 -76.82,66.27 -145.08,119.07 -281.12,119.07l-953.84 -2.8zm-28278.82 1686.74l0 -1683.94c326.69,0 698.32,63.5 883.33,-123.39l-883.33 -6.84 0 -1168.36 30236.61 0 0 2982.53 -30236.61 0zm26243.63 -1687.4c15.14,-18.65 39.64,-68.73 119.33,-102.57 121.78,-51.71 928.22,-32.22 1115.39,-12.28 -81.18,68.73 -141.67,118.31 -283.58,118.31l-951.14 -3.46zm-1764.67 -97.56c113.74,-60.4 994.05,-31.94 1123.15,-23.8 -153.81,168.32 -284.94,125.11 -562.42,124.83 -221.69,-0.22 -443.43,1.44 -665.1,-1.2l104.37 -99.83zm-2142.03 100.16c85.18,-110.35 134.03,-124.13 250.22,-130.5l978.08 5.69c-142.08,169.89 -295.62,125.94 -562.96,125.68 -221.78,-0.21 -443.58,1.04 -665.34,-0.87zm-2021.36 -100.36c113.98,-60.27 992.04,-31.78 1121.54,-23.6 -153.37,169.46 -285.67,125.1 -560.85,124.83 -222.19,-0.22 -444.39,1.02 -666.57,-0.87l105.88 -100.36zm-2307.04 -4.17c103.78,-51.71 1010.63,-27.34 1120.18,-17.91 -163.68,162.81 -279.1,123.67 -555.64,123.32 -223.51,-0.29 -447.03,0.46 -670.55,-0.45l106.01 -104.96zm-2142.22 104.96c72.27,-106.17 118.78,-125.88 253.97,-131.27l973.89 7.98c-166.33,165.72 -275.58,124.07 -558.52,123.74 -223.12,-0.27 -446.23,0.47 -669.34,-0.45zm-1876.24 -3.89c24.76,-29.48 7.52,-22.11 63.94,-67.19 139.16,-111.21 961.45,-68.38 1170.24,-47.56 -78.47,69.51 -144.36,119.07 -284.04,119.07l-950.14 -4.32zm-2004.8 -34.86c140.21,-133.97 -107.62,79.8 32.97,-30.82 28.92,-22.75 21.01,-19.87 54.51,-34.52 125.89,-55.04 921.34,-33.73 1114.95,-14.55 -81.18,75.5 -137.28,119.07 -283.99,119.07l-950.62 -4.32 32.18 -34.86zm-2159.17 35.72c15.13,-18.65 39.63,-68.73 119.32,-102.57 121.38,-51.54 928.57,-32.18 1115.39,-12.28 -81.18,68.73 -141.67,118.31 -283.12,118.31l-951.59 -3.46zm-2101.17 1.08c37.29,-46.41 9.27,-23.98 67.45,-70.19 137,-108.8 905.37,-63.2 1160.85,-53.86 -58.94,68.74 -129.21,126.43 -272.02,126.43l-956.28 -2.38zm-2036.65 -0.42c36.12,-44.62 -12.4,-7.94 65.9,-70.99 132.37,-106.58 902.27,-60.89 1161.96,-53.4 -58.88,74.22 -125.54,127.19 -272.36,127.19l-955.5 -2.8zm-1869.37 2.37c48.25,-68.08 -3.15,-9.95 51.58,-61.38 75.45,-70.9 114.23,-65.99 202.48,-69.78l974.14 7.53c-161.62,166.61 -278.46,124.39 -558.86,124.08 -223.12,-0.26 -446.23,0.47 -669.34,-0.45zm-1929.12 -101.54c112.37,-59.06 994.19,-30.94 1121.44,-22.85 -155.75,168.15 -285.35,125.13 -560.41,124.83 -223,-0.24 -446,-0.01 -669,-0.01l107.97 -101.97z"/>
  <path class="fil2" d="M5659.31 6126.46l-223.04 7.89 -18.54 126.18 -17.81 3989.9 -72.32 -9.46 -651.24 -3.19 -1080.63 11.77 -768.86 -5.17 -1069.86 1.51 -82.04 -10.82 -670.74 0.95c-123.51,49.85 -1011.7,30.64 -1108.48,-7.26l0 1193.72 30236.61 0 0 -1217.7c-589.69,0 -1178.9,0 -1771.67,0 -376.71,0 -1478.74,-39.49 -1733.01,17.56l-327.11 -8.21 -1284.44 0.09c-135.84,78.01 -2224.82,15.25 -2592.8,30.16l-687.5 -3.17 -238.23 -2.59 -281.39 2.02c0,-250.17 41.72,-926.11 -16.38,-1107.49l0 1106.69 -724.06 -8.1 -2512.02 6.69 -2068.61 -3.71 -54.16 -3.85 -561.32 1.02 -52.87 3.13 -301.31 -8.14 -649.63 0c-247.2,24.5 -1999,36.57 -2126.88,-10.66l-1034.28 -0.62 -246.93 -5.77c-45.48,71.73 23.65,30.19 -78.76,47.06l-43.26 -2.81 -1714.08 -7.13 -1766.13 -2.18c-168.78,-9.75 37.9,17.85 -71.7,-6.08l-39.29 -436.68 -83.5 0c-1.51,-218.86 30.26,-448.43 -59.21,-604.17 -127.62,-43.11 -221.6,-40.57 -354.04,0 -88.95,155.14 -59.05,385.17 -59.05,604.12l-83.08 0.05 5.84 450.1 -1096.45 0 0 -3987.75 1822.69 -3.83 -22.87 -132.63 -1176.19 -0.98 4.83 -1179.63 6.82 1181.19 -401.02 -2.02z"/>
  <path class="fil3" d="M24256.23 6679.8l277.63 -3.4 -0.02 1129.01 -277.54 -7.81 -0.07 -1117.8zm-3519.7 1133.02l726.42 -7.15 -0.07 -878.64 395.46 2.5 0.09 870.98 -346.13 5.06 3495.68 0.14 2.09 140.91 -3.28 294.17 9.34 1973.43 1284.44 -0.09 0.66 -4383.31 -13.36 -1274.6 -1130.57 -5.21c-26.41,-184.34 28.97,-398.74 -30.58,-572.7l-592 5.03 -9.13 2671.69 -268.64 -3.1 -0.71 -1345.61 -1037.57 -827.68 -8.09 737.84 6.68 2584.47 -401.77 -6.07 6.44 -2578.22c-9.44,-102.04 -30.46,-1159.53 7.57,-1238.07 49.56,-102.33 98.74,12.95 84.2,-344.92l-1155.08 0c0,57.4 -8.98,190.24 8.11,238.67 66.73,189.17 92.38,-142.09 92.25,520.83l-0.05 2507.09 -396 -12.66c0,-687.63 -0.01,-1375.26 0,-2062.89 0.01,-602.84 -76.63,-767.87 -238.64,-1329.48 -31.34,-108.66 -65.75,-291.48 -127.48,-378.96l-158.71 491.07c-253.91,929.35 -201.18,633.37 -201.18,1677.69 0,842.45 2.96,1685.4 -0.39,2527.79z"/>
  <path class="fil4" d="M17166.52 9558.14c28.64,-140.11 32.97,-472.86 -7.9,-609.3l-2.87 -131.58 648.89 0.03 -5.08 131.3c-39.19,137.57 -36.05,467.47 -7.51,606.91l22.25 117.64 -667.14 0.55 19.36 -115.55zm-3221.73 -610.47l-21.93 364.97 25.25 361.5 -656.37 -1.53 31.59 -117.21c0,-171.7 37.38,-474.13 -20.77,-612.25l-4.01 -125.01 652.17 -0.83 -5.93 130.36zm2878.22 595.41l21.39 130.15 -619.7 0.46c-59.89,-69.67 -41.36,15.94 -25.93,-109.63 28.24,-145.49 34.44,-476.66 -7.95,-616.31l-4.02 -131.65 653.22 11.9 -18.94 114.42 -4.8 10.01 6.73 590.65zm-3904.39 -602.41l-4.16 9.1 7.31 606.83 21.81 116.56 -668.24 0.53 18.17 -115.91 7.19 -609.27 -4.27 -7.78 -17.4 -121.7 657.59 12.56 -18 109.08zm4260.28 -414.58l-16.89 -619.17 -10.87 -131.11 657.8 0.15 -12.65 131.42 -16.09 619.89 29.19 87.44c-143.35,33.58 -514.13,32.4 -665.01,0.34l34.52 -88.96zm-983.51 -15.96c41.99,-124.43 32.65,-459.47 -1.19,-604.31l-11.95 -130.01 656.63 0.15 -12.34 130.7 -15.06 618.3 29.93 103.99 -665.83 2.22 19.81 -121.04zm-3890.41 18.29l-16.19 -619.39 -9.76 -133.22 659.08 0.14 -11.84 133.08 -15.98 619.03 26.82 101.65 -664.63 -14.36 32.5 -86.93zm3566.33 -628.27c-51.89,235.57 -16.01,502.51 16.23,732.82l-663.96 -8.32c20.71,-234.78 57.26,-432.85 20.79,-721.72l-18.15 -125.43 659.11 0.54 -14.02 122.11zm-966.71 2.96c-33.57,317.22 1.08,469.87 23.2,726.76l-660.73 -2.7c22.85,-270.48 56.45,-379.21 25.07,-721.71l-22.92 -129.35 659.92 6.08 -24.54 120.92zm-962.45 1.54c-65.77,215.16 -1.23,530.35 11.23,726.55l-660.78 -4.03c22.55,-270.72 56.56,-376.05 25.27,-720.77l-23.05 -129.61 658.77 -0.86 -11.44 128.72zm3847.5 -1066.8l-4.59 624.94 20.24 96.09 -656.37 -11.52 25.01 -85.98 -4.97 -622.17 -11.14 -133.64 648.84 7.7 -17.02 124.58zm-969.23 2.27l-4.28 620.35 20.07 98.14 -652.55 1.89 11.79 -114.85 6.54 -610.82 -14.61 -128.18 649.73 3.89 -16.69 129.58zm-956.8 -5.35l6.36 616.33 7.35 110 -653.16 -7.42 24.9 -94.72 -4.93 -617.03 -9.34 -137.39 649.06 10.76 -20.24 119.47zm-957.93 5.58l-12.28 372.1 28.59 347.58 -653.76 -3.03 25.88 -102.48 -3.3 -611.73 -7.06 -136.72 637.29 2.55 -15.36 131.73zm-968.54 4.23l-12.75 367.87 23.17 348.68 -653.7 -4.08 25.99 -103.86 -3.24 -609.7 -7.28 -137.15 636.6 -0.45 -8.79 138.69zm-1019.09 -5.82l-4.83 623.31 20.06 97.17 -656.48 -12.14 25.07 -85.16 -4.96 -623.14 -11.43 -133.12 648.96 6.68 -16.39 126.4zm4252.64 -463.66c20.22,-149.91 36.01,-482.63 -14.56,-615.05l-1.31 -136.26 649.37 0 -2.27 136.04c-48.86,134.17 -34.17,462.6 -13.82,612.66 24.55,173.96 28.3,46.39 -27.96,107.75l-561.03 0c-47.11,-49.99 -82.3,82.76 -28.42,-105.14zm-4872.73 0.9l0.62 -626.5 -14.01 9.98 -0.02 -135.69 648.99 0 -3.14 135.69 -13.83 -7.78 0.55 623.51c26.57,182.06 33.16,38.98 -29.09,105.03l-561.03 0c-47.36,-50.18 -82.08,82.67 -29.04,-104.24zm4521.75 -12.94l21.71 113.92 -616.73 3.26c-36.46,-44.52 -78.71,73.63 -22.46,-91.91l0.56 -642.84 -14.52 14.8 -1.48 -137.67 655.1 12.28 -25.58 135.42 3.4 592.74zm-947.64 -729.54c16.02,55.2 -52.89,451.07 13.45,822.9 -144.34,52.06 -499,34.36 -661.95,15.83 18.91,-175.61 85.72,-570.4 6.62,-724.49l-1.58 -123.08 643.46 8.84zm-951.5 119.86c-64.62,113.03 -39.62,457.33 -15.08,596.27l23.02 129.49 -662.33 -3.28c26.04,-149.41 27.48,-193.19 37.81,-356.66l-29.5 -363.59 -1.63 -131.54 651.89 5.1 -4.18 124.21zm-994.33 15.27c4.21,261.11 -3.71,463.8 27.13,711.08l-660.78 -4.76c25.87,-164.64 85.47,-573.1 7.1,-720.65l-1.15 -129.65 655.65 -0.32 -27.95 144.3zm-1777.28 4447.57c127.88,47.23 1879.68,35.16 2126.88,10.66l-2.83 -373.24 -4.23 -755.05c70.39,-418.01 599.29,-416.51 663.74,0l-2.88 1090.04 -4.17 38.25 301.31 8.14c12.1,-207.44 4.12,-425.72 4.01,-634.55 -0.08,-130.8 -55.72,-527.51 36.48,-587.98 10.63,-94.02 15.58,-103.33 100.26,-160.85 61.64,-41.87 123.1,-61.37 206.69,-58.34 154.07,5.61 268.83,102.7 286.67,232.39 44.04,61.16 30.83,179.66 29.48,257.73l4.76 951.3 2068.61 3.71 16.42 -1534.53 -3 -525.35 1.53 -2758.94 -5828.56 -1.44 -1.17 4798.05z"/>
  <path class="fil3" d="M26961.54 5830.13l11 1930.26c-67.27,3.69 -136.82,-3.68 -180.49,-0.69 -248.03,16.96 -136.41,-31.91 -159.01,92.87l3499.32 0 0 -66.57 -688.85 -13.32 -565.04 -9.46 -3.19 -1330.15 -13.88 -2408.58 -605.76 9.68 -4.99 739.39 -662.42 -3.93 -6.11 -743.44 -608.18 2.32 -12.4 1801.62z"/>
  <path class="fil3" d="M11116.44 8236.83l-1.75 1978.77 1034.28 0.62 1.17 -4798.05c-92.13,-32.75 -63.34,-31.87 -53.96,-160.87l438.69 -4.16 13.26 -684.92 -697.73 -2.42 -8.88 -914.75 -712.65 9.18 -12.43 4576.6z"/>
  <path class="fil3" d="M4218.6 6106.99l-426.25 -1.5 -689.75 10.63 -1.85 -1524 -617.27 -3.29 -11.42 -1938.51 -910.38 6.28 -0.33 3459.61 187.17 11.77 4.2 132.38 1814.6 -3.25 20.81 -4.43 1829.6 7.85 18.54 -126.18 223.04 -7.89c-21.5,-173.24 5.38,-353.98 -18.86,-514.52 -29.75,-197.03 -69.76,-189.64 -82.71,-440.88 -17.33,-336.4 -148.66,-1105.6 -164.15,-1353.04 -19.33,-308.58 -65.73,-1183.48 -153.29,-1368.52 -80.74,126.56 -112.71,700.79 -125,906.64l-153.09 1382.2c-2.69,309.25 -96.37,706.9 -123.07,901.2 -20.58,149.68 4.56,309.67 -15.01,470.66l-605.53 -3.21z"/>
  <path class="fil5" d="M17946.19 5243.94l-3.25 17.43c152.37,-0.33 50.22,-28.7 95.45,52.42 -11.89,118.36 27.16,72.09 -59.69,105.82l-1.53 2758.94 818.33 3.78 24.97 -0.53 318.28 9.21 12.3 -536.48 1165.11 0.13 22.14 534.6 318.28 -7.46 24.98 0.53 769.74 -0.97 0 -339.4c-209.61,14.09 -514.89,30.49 -715.17,-15.5l-310.11 -19.6 -2.75 -316.8 -581.79 -7.37 -3.27 -228.86 -772.69 -3.68 -0.7 -3288.53c123.46,-109.17 81.36,39.8 117.08,-116.31 8.46,-36.94 -1.24,-181.36 -4.3,-227.97l-1223.59 -2.8 -7.82 1629.4z"/>
  <path class="fil6" d="M26627.68 10222.34c254.27,-57.05 1356.3,-17.56 1733.01,-17.56 592.77,0 1181.98,0 1771.67,0l0 -700.39 -1358.53 9.64c-18.09,113.31 16.5,135.08 -58.81,151.31l-915.82 -6.45c21.91,-218.77 16.19,-575.93 0.44,-805.57l974.69 -11.96 1358.03 -7.88 0 -406.75 -3500.12 0 -4.56 1795.61z"/>
  <path class="fil7" d="M637.86 9115.83l-3.73 709.19 -29.71 0 -585.98 -0.23 14.41 -94.5 2.86 -245.03 -2.31 -97.21 -1.55 -264.79c-12.66,-22.72 -3.63,24.51 -28.42,-69.95 -2.76,-10.48 -2.03,-47.15 -2.03,-64.45l659.09 12.1 -22.63 114.87zm-742.11 1112.93l0 -3961.46 1856.97 -6.94 4.29 3985.53 -82.04 -10.82 -12.22 -414.29 3.57 -688.23c-21.92,-433.29 -628.29,-425.54 -653.52,-1.25l4.03 692.37 -12.6 412.35c-123.51,49.85 -1011.7,30.64 -1108.48,-7.26zm1742.7 -2294.41l-0.49 642.32 -601.02 -0.59 -0.34 -641.27 -15.64 -141.74 638.61 -0.58c9.54,81.95 15.11,82.81 -21.12,141.86zm-1004.76 -4.69l-0.67 646.8 -600.21 0.94 -0.71 -642.37c-47.56,-72.99 -28.06,-88.55 -19.13,-143.3l638.53 7.92c10.02,98.76 18.71,62.74 -17.81,130.01zm1003.82 -1232.27l0.41 641.97 -600.58 -0.34 -1.61 -641.11c-21.77,-40.06 -29.74,-23.26 -18.37,-141.82l645.29 -0.55c9.1,108.44 8.17,91.79 -25.14,141.85zm-1003.95 -4.6l-0.95 646.49 -599.54 0.89 -1.39 -642.29c-19.68,-27.67 -59.35,74.66 -23.41,-143.14l645.29 8.17c2.53,32.25 6.43,37.03 2.29,72.22 -6.42,54.66 -5.86,28.88 -22.29,57.66z"/>
  <path class="fil8" d="M8324.18 9802.01l-16.48 -669.48c67.45,-433.14 613.14,-432.37 648.97,20.01 0.29,176.69 54.88,546.83 -25.48,667.44 -3.88,153.99 11.35,244.71 0.11,402.42 -146.75,25.83 -464.27,34.55 -597.84,-5.57l-9.28 -414.82zm-675.5 -353.78l285.08 0.01 -5.93 271.31 -277.31 -3.96 -1.84 -267.36zm-322.04 0l289.8 0.01 -6.58 271.27 -281.98 -3.91 -1.24 -267.37zm578.27 -333.5c43.09,118.44 28.06,175.31 27.98,301.34l-288.97 -0.22 28 -300.61 -79.7 0 23.34 300.83 -289.67 0c0,-126.92 -15.39,-182.61 28.68,-301.62 -59.19,-56.06 -49.22,76.19 -49.22,-89.37 76.68,-46.5 404.67,-36.54 506.34,-32.43 109.22,4.42 73.14,-12.62 140.47,32.43 0,161.62 10.08,39.77 -47.25,89.65zm421.07 -849.87l616.58 2.69 -11.9 268.58 -595.87 0 -8.81 -271.27zm-1000.27 -0.48l608.92 0.03 -12.22 271.72 -592.7 0.01 -4 -271.76zm1603.51 -339.96l13.15 307.36 -614.64 -2.68 15.52 -301.93c-52.77,-62.44 -46.51,-9.84 -25.14,-131.07l630.16 4.82c15.96,99.15 26.48,57.36 -19.05,123.5zm-1008.31 2.09l11.98 305.71 -609.59 -0.07 15.57 -306.63c-38.86,-44.66 -39.22,23.82 -31.46,-108.76 132.63,-53.56 473.64,-26.77 636.69,-15.41 20.95,123.19 2.75,92.58 -23.19,125.16zm420.75 -911.36l595.15 0.97 2.79 291.82 -610.29 -3.56 12.35 -289.23zm-1004.87 0.51l592.32 -0.08 5.62 292.94 -610.84 -0.04 12.9 -292.82zm1604.97 -330.4l0.61 300.98 -612.1 -1.85 0 -296.63 -13.85 -126.71 637.87 4.58 -12.53 119.63zm-1008.79 2.14l1.76 299.15 -608.84 0 0 -300.29 -13.23 -124.55 637.91 3.94 -17.6 121.75zm-667.44 3557.37l1766.13 2.18 -4.27 -3978.99 -1779.65 -7.43 17.79 3984.24z"/>
  <path class="fil9" d="M9143.33 9742.83l-2.09 -618.36 -28.18 -124.31 653.82 -7.46c-8,319.56 -33.36,513.81 -2.16,846.51l-646.32 -1.92 24.93 -94.46zm1608.01 -1813.81l-0.52 643.57 -602.68 -3.28 -1.04 -644.28 -16.9 -130.59 643.41 9.32c9.38,105.88 16.69,61.34 -22.27,125.26zm-1008.76 -0.49l-0.4 643.23 -598.45 -4.84 -1.03 -635.23c-40.6,-68.12 -32.23,-26.13 -20.72,-138.8l643.02 16.01c6.84,103.57 13.22,56.96 -22.42,119.63zm406.36 -946.47l-0.27 -289.98 -14.11 -131.55 639.17 7.73c6.58,110.02 -21.51,262.87 -21.47,414.13 0.05,149.44 18.6,294.71 21.47,421.95l-641.87 -7.67 17.08 -414.61zm-406.32 0.37c0.09,141.03 16.93,294.99 15.76,423.46l-636.76 -4.72c-0.17,-117.37 18.47,-274.35 18.39,-418.85 -0.08,-149.62 -26.68,-303.85 -18.4,-421.91l636.77 -0.98c11.78,106.57 -15.84,291.92 -15.76,423zm-710.96 3264.52l1714.08 7.13 13.75 0.2 -628.61 -1.48 7.4 -353.45 621.95 -7.43 -1.41 15.63 -553.88 -11.25c-85.96,-30.08 -10.15,26.17 -70.13,-41.54l-8.12 -727.47c10.46,-425.43 627.43,-430.86 650.73,0.21l11.58 1129.39c102.41,-16.87 33.28,24.67 78.76,-47.06l-0.93 -1971.42 -3.2 -1971.79 -1836.24 1.34 4.27 3978.99z"/>
  <path class="fil7" d="M6135.95 9124.82l-13.47 295.15 1.73 22.21 3.66 304.42 25.69 95.95 -655.87 -5.42 31.1 -91.14 2.48 -302.59 2.35 -24.26 -10.27 -295.73 -23.04 -131.62 657.39 -0.63 -21.75 133.66zm1000.82 -1195.87c-8.26,240.19 24.33,532.82 20.49,714.34l-644.42 0.53c-4.55,-183.45 30.5,-470.96 19.55,-714.24 -40.59,-64.91 -25.47,-78.75 -17.18,-135.45l639.43 2.44c11.79,77.37 17.3,78.12 -17.87,132.38zm-1008.28 1.11c-14.04,251.98 21.54,517.58 19.73,713.99l-639.81 -2.44c-3.83,-179.84 28.76,-472.47 20.5,-712.66 -40.16,-61.95 -27.26,-69.92 -17.88,-134.06l635.05 -0.52c19.47,158.54 -17.4,135.37 -17.59,135.69zm1006.9 -1236.36l4.97 260.11c-7.67,183.28 20.8,326.29 19.73,454.55l-650.02 0.58c-1.65,-127.69 27.22,-272.18 19.6,-455.13l4.98 -259.83c-40.9,-58.88 -30.94,-62.92 -23.27,-137.18l647.43 2.5c11.91,116.26 5.07,93.06 -23.42,134.4zm-1010.25 0.93l4.25 259.18c-6.68,183.62 21.42,322.94 21.1,455.39l-644.9 -2.69c-1.07,-126.41 27.4,-269.42 19.73,-452.7l4.97 -260.11c-40.61,-58.93 -30.63,-62.17 -23.42,-136.12l642.48 -0.53c3.16,36.46 8.07,38.89 2.78,78.45 -8.23,61.45 -7.46,30.33 -26.99,59.13zm390.52 3107.38l-12.88 -666.75c64.13,-441.85 609.97,-442.61 663.74,9.81l-11.98 656.94 39.29 436.68c109.6,23.93 -97.08,-3.67 71.7,6.08l-17.79 -3984.24 -1822.69 3.83 0 3987.75 1096.45 0 -5.84 -450.1z"/>
  <path class="fil10" d="M4668.83 9140.24c61.77,-449.49 601.28,-447.93 670.52,-7.19l-6.04 703.2 -114.64 -1.62 -428.94 -2.36 -110.59 -0.4 -10.31 -691.63zm-372.77 603.19l30.23 89.04 -654.31 10.26c23.7,-321.62 3.89,-541.03 -1.98,-851.6l654.16 1.69 -27.73 128.43 -0.37 622.18zm387.76 -1949.28l640.66 -0.66c15.6,107.93 5.75,702.69 3.82,852.19l-645.86 -2.52 1.38 -849.01zm-1007.91 851.29c-1.92,-149.26 -11.78,-744.02 3.82,-852.46l636.25 5.33c17.84,138.48 3.9,665.57 3.32,845.97l-643.39 1.16zm1003.55 -2088.37l648.84 -0.54c15.53,159.25 2.15,660.84 0,852.06l-645.45 -2.53 -3.39 -848.99zm-386.96 761.48c30.01,48.7 38.75,-74.4 26.8,88.63l-643.39 1.16c-2.14,-190.97 -15.53,-692.56 0,-852.34l643.38 5.46 -22.94 137.06 -3.85 620.03zm-696.77 2931l1080.63 -11.77 6.67 -187.99 644.57 -13.38 0 204.56 72.32 9.46 17.81 -3989.9 -1829.6 -7.85 7.6 3996.87z"/>
  <path class="fil3" d="M22847.47 10027.28c0,-217.91 -35.23,-1033.73 21.02,-1177.48 162.11,-42.15 1727.67,-42.15 1889.79,0 56.24,143.75 21.01,959.57 21.01,1177.48 -133.83,35.2 -1797.98,35.2 -1931.82,0zm-1349.87 211.34l238.23 2.59c-20.22,-227.96 -31.31,-1227.02 9.75,-1418.34 199.75,0 504.69,-38.55 676.51,21.64l1.24 1399.87c367.98,-14.91 2456.96,47.85 2592.8,-30.16l-9.34 -1973.43 -3500.89 4.43 -8.3 1993.4z"/>
  <path class="fil9" d="M2464.04 9418.89l1.32 30.43 -1.25 293.14 36.76 99.99 -678.23 13.35c25.54,-197.31 56.53,-188.38 40.88,-444.23l-1.01 -275.37 -22.38 -23.66 -8.92 -121.93 657.09 1.55 -13.89 120.55 -4.87 15.68 -5.5 290.5zm1009.71 -1493.46c-9.31,127.1 -4,254.28 -5.64,381.02 -2.18,167.91 34.71,242.76 33.79,346.62l-663.54 1.51c-2.64,-108.81 56.72,-360.28 28.18,-726.01 -38.88,-69.11 -28.72,-32.46 -14.34,-136.34l638.04 5.25c12.25,98.82 22.2,64.04 -16.49,127.95zm-1003.95 0c-23.18,347.68 23.32,563.36 21.56,727.67l-663.74 1.48c-2.75,-85.42 54.59,-366.51 30.33,-725.3 -9.86,-16.94 -8.47,33.77 -21.47,-56.78 -7.74,-53.91 -0.04,-33.58 7.37,-80.26l643.34 5.31 -17.39 127.88zm997.53 -1237.19c0,127.36 2.35,254.73 0.65,381.12 -2.21,163.94 33.47,236.33 33.66,346.58l-663.16 1.54c-1.28,-114.69 36.38,-176.31 33.93,-347.94 -1.79,-125.4 0.71,-251.84 0.71,-378.4 -40.89,-53.14 -32.84,-52 -24.7,-136.15l644.75 5.39c3.17,34.81 8.52,35.68 2.59,74.15 -11.36,73.73 3.11,14.79 -28.43,53.71zm-1620.53 -1.14l-7.22 -132.1 645.01 5.26c2.19,32.19 6.08,39.61 1.8,74.29 -7.13,57.79 -6.14,28.21 -22.44,53.85l27.41 727.6 -663.39 1.48c7.46,-193.39 65.91,-461.8 18.83,-730.38zm-89.79 3558.79l1069.86 -1.51 16.77 -412.55 -2.71 -697.58c38.15,-436.48 629.46,-458.62 658.54,27.54l-2.61 650.16 30.82 433.52c5.13,-7.1 10.5,-27.27 12.08,-23.24l27.56 -3965.12 -1814.6 3.25 4.29 3985.53z"/>
  <path class="fil3" d="M18221.53 8892.64l1913.78 9.46 -3.45 1094.91 -1916.97 -8.32 6.64 -1096.05zm-241.36 -188.74l-16.42 1534.53 2512.02 -6.69 -0.01 -1097.17 724.07 -1.42c58.1,181.38 16.38,857.32 16.38,1107.49l281.39 -2.02 8.3 -1993.4 -27.07 457.42 -794.62 0.05 -2.65 -520.36 -24.98 -0.53 -9.54 522.37 -338.83 -4.2 -1.89 -505.26 -27.63 -0.89 -11.43 508.82 -327.5 0.07 -3.2 -508.89 -27.63 0.89 -6.86 508.06 -332.06 -2.8 -1.89 -505.26 -27.63 -0.89 -11.5 509.92 -352.78 -7.36 -353.09 7.28 -2.65 -521.86 -24.97 0.53 -9.59 520.2 -805.74 1.37z"/>
  <path class="fil3" d="M17946.19 5243.94l7.82 -1629.4 -5.29 -139.96 -324.42 -13.53 0 -1001.19c-181.24,8.18 -124.07,-44.89 -124.01,466.05 0.03,182.21 0,364.42 0,546.62l-153.59 -4.19 0.07 -1290.5c1.54,-326.58 37.88,-302.09 -59.07,-345.12 -94.31,37.91 -66.71,16.26 -68.36,169.42l3.46 1467.94 -507.91 2.45 0.71 1771.41 1230.59 0z"/>
  <polygon class="fil11" points="18214.89,9988.69 20131.86,9997.01 20135.31,8902.1 18221.53,8892.64 "/>
  <path class="fil12" d="M26300.57 10214.13l327.11 8.21 4.56 -1795.61 0.8 -574.16c22.6,-124.78 -89.02,-75.91 159.01,-92.87 43.67,-2.99 113.22,4.38 180.49,0.69l-11 -1930.26 -660.31 0.69 -0.66 4383.31z"/>
  <polygon class="fil13" points="26632.24,8426.72 30132.36,8426.72 30132.36,7852.57 26633.04,7852.57 "/>
  <path class="fil14" d="M7591.54 5509.41l11.6 622.94 -378.27 -4.45 22.87 132.63 1779.65 7.43 1836.24 -1.34c87.51,-46.7 62.45,-31.1 85.8,-144.92 -215.86,0 -484.89,29.07 -689.44,-17.86l-749.92 -4.16c-123.21,40.15 -286.43,27.79 -420.34,15.49 0,-616.73 -528.92,-1193.28 -473.84,-1852.92l260.45 -2.41 -0.03 -310.16 -303.44 8.93c0,167.49 19.21,509.01 -7.47,655.94 -55.8,307.28 -458.28,1074.37 -458.27,1495.63l-474.72 0.98c0,-102.7 -0.84,-205.73 0.42,-308.4 3.77,-306.67 -23.13,-224.23 -29,-271.77 -1.54,-12.41 -7.12,-15.07 -12.29,-21.58z"/>
  <path class="fil3" d="M14496.89 5257.23l941.38 -1.35 18.64 -517.48c-6.06,-5.69 -15.76,-11.4 -20.62,-14.23l-114.44 -43.31 -0.73 -748.01c-108.28,-0.19 -112.18,17.01 -183.4,-28.77 -11.35,-221.31 -19.17,-449.4 -28.07,-666.25 -10.19,-248.19 -70.75,-386.51 -92.37,-572.65 -24.43,-210.23 12.05,-473.19 -4.01,-689.25 -15,-201.69 -63.08,-402.06 -15.64,-639.83 -44.47,52.36 -12.06,-8.49 -35.12,68.72l-41.42 571.86c-18.63,214.43 19.95,476.11 -4.84,685.89 -24.07,203.74 -85.42,334.88 -93.18,608.89 -6.3,222.31 -19.05,426.24 -26.88,653.08l-183.74 19.79 0 748.01c-179.72,3.15 -140.85,11.32 -137.36,216.87 2.15,126.02 -7.91,225.81 21.8,348.02z"/>
  <polygon class="fil12" points="7224.87,6127.9 7603.14,6132.35 7591.54,5509.41 6796.9,5509.59 6791.76,4936.06 6053.51,4947.29 6048.68,6126.92 "/>
  <path class="fil3" d="M238.3 6119.97l796.93 -4.1c0,-156.03 -28.02,-960.44 29.2,-1067.98 63.9,-120.11 29.68,62.48 55.96,-111.83 4.8,-31.84 -2.3,-115.52 -4.55,-160.83l-949.72 -2.07c-8.77,61.88 -21.32,128.53 -3.29,190.01 47,160.24 76.45,-89.31 75.48,436.91 -0.44,239.95 -0.01,479.94 -0.01,719.89z"/>
  <polygon class="fil3" points="9510.07,6099.68 10259.99,6103.84 10260.01,4728.21 9510.07,4726.92 "/>
  <polygon class="fil12" points="23210.58,5216.48 22821.93,5216.66 22815.49,7794.88 23217.26,7800.95 "/>
  <polygon class="fil11" points="23831.85,10004.81 24610.64,10004.81 24732.86,10002.08 24732.85,8895.06 24610.65,8892.23 23831.83,8892.7 "/>
  <path class="fil15" d="M12150.14 5418.17l5828.56 1.44c86.85,-33.73 47.8,12.54 59.69,-105.82 -45.23,-81.12 56.92,-52.75 -95.45,-52.42l-2504.67 -5.49 -941.38 1.35 -1962.02 -4.09 -438.69 4.16c-9.38,129 -38.17,128.12 53.96,160.87z"/>
  <polygon class="fil11" points="22893.67,10001.66 23016.11,10005.7 23795.85,10005.03 23795.2,8892.56 22893.67,8893 "/>
  <path class="fil16" d="M28773.83 9514.03l1358.53 -9.64 0 -670.91 -1358.03 7.88c-8.23,231.7 -4.16,440.05 -0.5,672.67z"/>
  <polygon class="fil17" points="21496.93,8177.39 21505.9,8245.22 25006.79,8240.79 25010.07,7946.62 21503.81,7937.09 "/>
  <polygon class="fil12" points="29443.51,7772.68 29438.87,6439.05 28875.28,6433.07 28878.47,7763.22 "/>
  <path class="fil18" d="M3496.86 9811.95l-103.96 12.75c-4.82,-124.28 14.01,-433.93 -20.62,-530.37 -57.22,-159.39 -255.95,-138.65 -372.35,-63.23 -84.18,84.06 -37.98,447.4 -56.65,600.73l-99.64 0 -16.77 412.55 768.86 5.17 -7.6 -3996.87 -20.81 4.43 -27.56 3965.12c-1.58,-4.03 -6.95,16.14 -12.08,23.24l-30.82 -433.52z"/>
  <polygon class="fil11" points="21783.34,10213.05 22377.57,10213.05 22379.84,9197.49 22366.51,9085.61 21790.27,9085.49 21783.76,9197.7 "/>
  <path class="fil19" d="M28095.08 9427.86c56.38,-37.01 -42.99,-79.04 375.39,-46.22l-22.86 158.16c-239.07,-40.68 -352.53,96.79 -352.53,-111.94zm112.22 -236.68c89.15,-41.85 89.75,-24.36 164.26,-25.35l14.23 147.6 -188.55 -26.95 10.06 -95.3zm-49.59 -106.15l-111.57 -6.64 -1.37 -138.06 109.07 -1.02 307.76 -5.51 12.61 159.31 -271.06 -13.02 1.91 -107.47c-4.35,219.6 0.39,67.08 -47.35,112.41zm616.12 429c-3.66,-232.62 -7.73,-440.97 0.5,-672.67l-974.69 11.96c15.75,229.64 21.47,586.8 -0.44,805.57l915.82 6.45c75.31,-16.23 40.72,-38 58.81,-151.31z"/>
  <polygon class="fil20" points="19138.75,8191.01 19178.1,8198.42 19540.49,8193.82 19568.12,8194.71 19908.93,8194.71 19936.56,8193.82 20278.69,8193.82 20306.32,8194.71 20338.3,8189.26 20316.16,7654.66 19151.05,7654.53 "/>
  <polygon class="fil12" points="10867.76,10209.83 11114.69,10215.6 11116.44,8236.83 10866.83,8238.41 "/>
  <polygon class="fil17" points="21503.81,7937.09 25010.07,7946.62 25007.98,7805.71 21512.3,7805.57 "/>
  <path class="fil11" d="M2463.95 6688.4l-617.15 -1.3c47.08,268.58 -11.37,536.99 -18.83,730.38l663.39 -1.48 -27.41 -727.6z"/>
  <path class="fil11" d="M2469.8 7925.43l-611.85 3.85c24.26,358.79 -33.08,639.88 -30.33,725.3l663.74 -1.48c1.76,-164.31 -44.74,-379.99 -21.56,-727.67z"/>
  <path class="fil11" d="M15230.2 5747.76c79.1,154.09 12.29,548.88 -6.62,724.49 162.95,18.53 517.61,36.23 661.95,-15.83 -66.34,-371.83 2.57,-767.7 -13.45,-822.9l5.59 124.32 -647.47 -10.08z"/>
  <path class="fil11" d="M3473.75 7925.43l-607.21 3.14c28.54,365.73 -30.82,617.2 -28.18,726.01l663.54 -1.51c0.92,-103.86 -35.97,-178.71 -33.79,-346.62 1.64,-126.74 -3.67,-253.92 5.64,-381.02z"/>
  <path class="fil11" d="M3467.33 6688.24l-594.21 2.9c0,126.56 -2.5,253 -0.71,378.4 2.45,171.63 -35.21,233.25 -33.93,347.94l663.16 -1.54c-0.19,-110.25 -35.87,-182.64 -33.66,-346.58 1.7,-126.39 -0.65,-253.76 -0.65,-381.12z"/>
  <path class="fil11" d="M15893.65 7772.95l-673.67 -0.55c37.28,293.7 18.48,622.64 -2.69,861.36l678.62 8.45c-32.96,-234.17 -6.36,-849.71 -2.26,-869.26z"/>
  <path class="fil11" d="M7136.77 7928.95l-604.38 0.63c10.95,243.28 -24.1,530.79 -19.55,714.24l644.42 -0.53c3.84,-181.52 -28.75,-474.15 -20.49,-714.34z"/>
  <path class="fil11" d="M14904.6 7903.11l-612.46 2.35c31.38,342.5 -2.22,451.23 -25.07,721.71l660.73 2.7c-22.12,-256.89 -56.77,-409.54 -23.2,-726.76z"/>
  <path class="fil11" d="M13942.15 7904.65l-624.28 1.75c31.29,344.72 -2.72,450.05 -25.27,720.77l660.78 4.03c-12.46,-196.2 -77,-511.39 -11.23,-726.55z"/>
  <path class="fil11" d="M6128.49 7930.06l-599.58 -1.11c8.26,240.19 -24.33,532.82 -20.5,712.66l639.81 2.44c1.81,-196.41 -33.77,-462.01 -19.73,-713.99z"/>
  <path class="fil11" d="M13926.25 5768.65l-626.55 -14.33c78.37,147.55 18.77,556.01 -7.1,720.65l660.78 4.76c-30.84,-247.28 -22.92,-449.97 -27.13,-711.08z"/>
  <polygon class="fil21" points="17980.17,8703.9 18785.91,8702.53 18795.5,8182.33 17977.17,8178.55 "/>
  <polygon class="fil21" points="21505.9,8245.22 21496.93,8177.39 21451.3,8181.36 20681.56,8182.33 20684.21,8702.69 21478.83,8702.64 "/>
  <path class="fil22" d="M20505.41 9801.87c0,-121.16 35.79,-103.35 148.48,-103.35l499.76 2.17 -12.04 202.95 -487.72 1.57c-112.69,0 -148.48,17.81 -148.48,-103.34zm12.34 -373.03l638.31 2.75 -1.53 207.77 -641.99 -17.99 5.21 -192.53zm0.77 -45.58c-23.94,-213.95 -21.6,-205.73 191.65,-202.85 144.15,1.94 287.63,2.01 445.13,1.43l1 218.04 -637.78 -16.62zm-42.75 848.48l724.06 8.1 0 -1106.69 -724.07 1.42 0.01 1097.17z"/>
  <path class="fil12" d="M20736.53 7812.82l-0.4 13.64c200.28,45.99 505.56,29.59 715.17,15.5l0 339.4 45.63 -3.97 6.88 -240.3 8.49 -131.52 346.13 -5.06 -0.09 -870.98 -395.46 -2.5 0.07 878.64 -726.42 7.15z"/>
  <polygon class="fil11" points="10751.34,7929.02 10147.1,7925.03 10148.14,8569.31 10750.82,8572.59 "/>
  <polygon class="fil11" points="633.69,7929.66 32.1,7935.03 32.81,8577.4 633.02,8576.46 "/>
  <polygon class="fil11" points="633.56,6692.79 31.68,6697.88 33.07,7340.17 632.61,7339.28 "/>
  <polygon class="fil11" points="1638.45,7934.35 1036.6,7934.81 1036.94,8576.08 1637.96,8576.67 "/>
  <polygon class="fil11" points="1637.51,6697.39 1035.73,6697.91 1037.34,7339.02 1637.92,7339.36 "/>
  <polygon class="fil11" points="9742.58,7928.53 9142.7,7931.69 9143.73,8566.92 9742.18,8571.76 "/>
  <polygon class="fil11" points="4713.02,7126.27 4710.92,7212.59 4717.19,7320.86 5289.63,7324.49 5298.74,7212.69 5297.22,7126.28 5295.22,6896.13 5297.22,6686.4 4710.91,6687.67 "/>
  <polygon class="fil11" points="4716.56,8560.31 5295.53,8561.2 5295.26,7922.86 4711.45,7928.07 "/>
  <polygon class="fil11" points="4292.5,7318.55 4296.35,6698.52 3707,6685.16 3709.42,7324.14 "/>
  <path class="fil23" d="M23831.83 8892.7l778.82 -0.47 122.2 2.83 0.01 1107.02 -122.22 2.73 -778.79 0 -0.02 -1112.11zm-938.16 0.3l901.53 -0.44 0.65 1112.47 -779.74 0.67 -122.44 -4.04 0 -1108.66zm-46.2 1134.28c133.84,35.2 1797.99,35.2 1931.82,0 0,-217.91 35.23,-1033.73 -21.01,-1177.48 -162.12,-42.15 -1727.68,-42.15 -1889.79,0 -56.25,143.75 -21.02,959.57 -21.02,1177.48z"/>
  <polygon class="fil11" points="3708.68,8561.2 4280.61,8559.96 4284.04,7930.9 3708.95,7922.55 "/>
  <polygon class="fil11" points="14294.12,7454.52 14659.5,7448.36 14659.57,7212.45 14893.41,7212.45 14905.69,6840.35 14290.82,6842.79 "/>
  <polygon class="fil11" points="13319.86,7453.19 13685.13,7446.08 13685.15,7212.45 13924.4,7212.45 13937.15,6844.58 13316.62,6843.49 "/>
  <polygon class="fil12" points="24256.3,7797.6 24533.84,7805.41 24533.86,6676.4 24256.23,6679.8 "/>
  <path class="fil11" d="M13323.33 9555.4c407.89,-60.05 359.14,167.52 361.97,-242.76l237.56 0 21.93 -364.97 -642.23 -4.52c58.15,138.12 20.77,440.55 20.77,612.25z"/>
  <path class="fil11" d="M17170.7 6375.1c171.21,-53.35 260.89,-0.23 353.08,-25.6l0 -230.3 206.99 0.03c0,23.43 -4.24,131.4 -1.79,144.97 18.3,101.62 -10.25,58.24 59.13,108.29 -20.35,-150.06 -35.04,-478.49 13.82,-612.66l-645.79 0.22c50.57,132.42 34.78,465.14 14.56,615.05z"/>
  <path class="fil11" d="M14304 6119.2l237.75 0.03 0 286.66c155.91,-54.97 187.1,-56.24 363.75,-56.24 -24.54,-138.94 -49.54,-483.24 15.08,-596.27l-646.08 2.23 29.5 363.59z"/>
  <path class="fil24" d="M10134.81 9854.76c59.98,67.71 -15.83,11.46 70.13,41.54l553.88 11.25 -49.38 -60.23c-4.39,-6.19 -10.1,-12.19 -14.13,-18.7 -109.77,-177.53 88.1,-574.24 -185.88,-642.91 -367.96,-92.23 -251.35,410.08 -285.27,646.13l-89.35 22.92z"/>
  <polygon class="fil11" points="33.4,9388.05 35.71,9485.26 279.76,9485.29 279.72,9715.7 32.85,9730.29 18.44,9824.79 604.42,9825.02 634.13,9825.02 637.86,9115.83 279.76,9116.41 279.76,9388.05 "/>
  <path class="fil11" d="M7140.36 6953.81l-610.69 0c7.62,182.95 -21.25,327.44 -19.6,455.13l650.02 -0.58c1.07,-128.26 -27.4,-271.27 -19.73,-454.55z"/>
  <path class="fil25" d="M15273.51 9830.78l573.7 0c-94.47,-26.73 -34.73,12.02 -69.4,-57.69 0,-275.69 76.48,-622.01 -231.7,-612.23 -408.73,12.97 -66.92,594.28 -272.6,669.92z"/>
  <path class="fil11" d="M6129.39 6953.81l-604.07 0c7.67,183.28 -20.8,326.29 -19.73,452.7l644.9 2.69c0.32,-132.45 -27.78,-271.77 -21.1,-455.39z"/>
  <path class="fil26" d="M1016.83 9823.67l-12.6 412.35 670.74 -0.95 -12.22 -414.29 -112.67 8.68 -420.08 1.48 13.78 -500.44c-57.7,90.78 -21.81,319.38 -21.81,442.59 -48.44,76.04 60.01,47.82 -105.14,50.58z"/>
  <path class="fil25" d="M14334.77 9841.59l566.14 -10.81 -87.16 -28.91c-0.89,-233.25 78.65,-633.93 -213.1,-633.25 -290.38,0.67 -212.18,400.06 -209.31,640.42l-56.57 32.55z"/>
  <polygon class="fil27" points="-104.25,6267.3 1752.72,6260.36 1748.52,6127.98 1561.35,6116.21 1035.23,6115.87 238.3,6119.97 -104.25,6118.94 "/>
  <path class="fil28" d="M4789.73 9832.27l428.94 2.36c-5.87,-262.85 81.54,-650.9 -214.62,-651.82 -295.57,-0.92 -208.55,387.69 -214.32,649.46z"/>
  <path class="fil29" d="M8421.36 9824.31l429.31 0c-10.02,-259.38 79.8,-640.11 -214.61,-641.11 -296.71,-1.02 -204.59,379.64 -214.7,641.11z"/>
  <path class="fil24" d="M1143.78 9330.5l-13.78 500.44 420.08 -1.48c-7.48,-346.63 107.76,-755.88 -366.6,-610.95l-39.7 111.99z"/>
  <path class="fil25" d="M14275.85 10226.88l649.63 0 4.17 -38.25c-190.42,-65.18 -436.83,-29.93 -641.32,-25.24l619.91 1.16 -7.33 -333.77 -566.14 10.81 -61.75 12.05 2.83 373.24z"/>
  <path class="fil30" d="M8931.19 9819.98l-80.52 4.33 -429.31 0 -97.18 -22.3 9.28 414.82c133.57,40.12 451.09,31.4 597.84,5.57 11.24,-157.71 -3.99,-248.43 -0.11,-402.42z"/>
  <polygon class="fil12" points="3792.35,6105.49 4218.6,6106.99 4218.59,5543.03 3800.25,5549.83 "/>
  <path class="fil25" d="M15226.79 10235.02l52.87 -3.13 -6.15 -401.11c205.68,-75.64 -136.13,-656.95 272.6,-669.92 308.18,-9.78 231.7,336.54 231.7,612.23 34.67,69.71 -25.07,30.96 69.4,57.69l-6.23 400.09 54.16 3.85 -4.76 -951.3c1.35,-78.07 14.56,-196.57 -29.48,-257.73l-20.06 96.96 -591.14 -0.48 17.58 -109.68c-92.2,60.47 -36.56,457.18 -36.48,587.98 0.11,208.83 8.09,427.11 -4.01,634.55z"/>
  <polygon class="fil25" points="15279.66,10231.89 15840.98,10230.87 15847.21,9830.78 15273.51,9830.78 "/>
  <polygon class="fil16" points="10759.49,10254.28 10760.23,9891.92 10138.28,9899.35 10130.88,10252.8 "/>
  <path class="fil11" d="M1862.51 9136.2l270.59 -3.96 -0.01 273.79 -269.57 5.54c15.65,255.85 -15.34,246.92 -40.88,444.23l678.23 -13.35 -36.76 -99.99 -273.21 -8.02 0.11 -268.41 274.35 -16.71 -1.32 -30.43 -273.14 -11.98 0.01 -273.88 278.63 -4.64 4.87 -15.68 -634.28 -0.17 22.38 23.66z"/>
  <path class="fil23" d="M21783.76 9197.7l6.51 -112.21 576.24 0.12 13.33 111.88 -2.27 1015.56 -594.23 0 0.42 -1015.35zm0.04 -328.69l594.06 0 0.01 127.3 -7.67 56.93 -583.1 0.06 -3.3 -184.29zm-47.97 1372.2l687.5 3.17 -1.24 -1399.87c-171.82,-60.19 -476.76,-21.64 -676.51,-21.64 -41.06,191.32 -29.97,1190.38 -9.75,1418.34z"/>
  <path class="fil11" d="M15249.07 7458.96l352.39 -15.1 3.31 -231.41 206.69 0.03c0,24.46 -3.87,129.22 -0.76,144.77 29.66,148.53 -17.43,53.43 59.28,93.85l-6.36 -616.33 -52.16 6.71 0 256.15 -205.15 -0.03 -17.8 -260.33 -71.73 -0.84 -0.75 261.23 -218.77 0c0,-142.74 25.47,-136.79 -46.84,-255.54l-6.28 -0.19 4.93 617.03z"/>
  <path class="fil11" d="M17178.9 8526.09c76.48,-69.81 43.9,-123.68 43.9,-249.65l213.01 0c-7.15,355.79 -25.45,214.57 87.97,243.75l0 -243.63 206.99 0 0 230.81 49.43 19.9 16.09 -619.89 -334.23 -7.34 -26.57 290.83 -206.84 0.04c-0.97,-141.51 24.46,-162.15 -42.78,-285.5l-23.86 1.51 16.89 619.17z"/>
  <path class="fil11" d="M16195.45 7445.65c70.31,-31.16 56.74,62.58 58.78,-233.2l206.84 0.03 1.21 230.29c117.04,8.25 219.23,-13.05 353.86,17.7l4.28 -620.35 -5.31 2c-74.62,118.78 -48.32,110.86 -48.32,255.5l-217.4 0.04 -0.03 -261.65 -73.22 1.29 -15.07 260.33 -206.96 0.03 -0.03 -255.16 -52.09 -7.67 -6.54 610.82z"/>
  <path class="fil25" d="M14273.02 9853.64l61.75 -12.05 56.57 -32.55c-2.87,-240.36 -81.07,-639.75 209.31,-640.42 291.75,-0.68 212.21,400 213.1,633.25l87.16 28.91 7.33 333.77 -619.91 -1.16c204.49,-4.69 450.9,-39.94 641.32,25.24l2.88 -1090.04c-167.84,35.02 -495.89,35.02 -663.74,0l4.23 755.05z"/>
  <path class="fil1" d="M10134.81 9854.76l89.35 -22.92c33.92,-236.05 -82.69,-738.36 285.27,-646.13 273.98,68.67 76.11,465.38 185.88,642.91 4.03,6.51 9.74,12.51 14.13,18.7l49.38 60.23 1.41 -15.63 -0.74 362.36 -13.75 -0.2 43.26 2.81 -11.58 -1129.39 -650.73 -0.21 8.12 727.47z"/>
  <path class="fil11" d="M12301.88 7461.94c118.05,-31.37 143.58,-16.23 263.22,-16.43l86.57 -2.76 0 -230.3 215.85 -10.15c0.04,120.29 -28.63,183.14 45.71,259.77l4.83 -623.31 -17.52 3.9c-65.31,119.02 -41.88,136.95 -42.02,277.25l-206.85 -22.25 0 -262.26 -88.29 -0.18 0.69 273.39 -207.53 8.78c-0.54,-137.95 23.59,-155.14 -42.03,-274.73l-17.59 -3.86 4.96 623.14z"/>
  <path class="fil11" d="M4029.28 9161.74l217.66 -5.16 -0.08 230.17 -217.35 -16.29 -0.23 -208.72zm-318.42 222.97l2.08 100.55 228.28 0.03 0 260.83 354.84 -2.69 0.37 -622.18 -525.42 1.47c-101.68,30.59 9.87,-36.55 -61.6,33.86l231.81 0 0.78 228.13 -231.14 0z"/>
  <path class="fil11" d="M12297.97 6376c164.65,-52.68 204.78,-37.98 353.7,30.9l0 -287.7 208.59 -0.55c7.03,48.33 0.09,79.74 4.18,116.92 4.74,43.07 -0.5,36.44 14.1,77.03 34.5,95.9 -35.15,-3.62 38.59,62.61l-0.55 -623.51c-64.16,62.87 -15.28,-5.75 -46.42,81.28 -14.06,39.3 -11.91,42.99 -15.7,84.84 -1.27,13.99 4.2,92.62 4.2,115.36 -67.83,0 -170.09,20.09 -196.06,-28.98 -53.05,-100.28 72.5,-124.02 -99.22,-258.71 0,282.74 71.78,287.69 -206.99,287.69 0,-66.3 14.79,-227.69 -57.8,-283.68l-0.62 626.5z"/>
  <path class="fil11" d="M17166.52 9558.14c83.55,-18.85 56.28,50.95 56.28,-245.99l212.69 0c0,16.15 -7,113.61 -6.4,117.74 32,220.34 -39.15,91.43 94.69,134.4l0 -252.02 206.99 0 0 237.02 61.28 6.21c-28.54,-139.44 -31.68,-469.34 7.51,-606.91l-315.56 -6.41c-76.03,120.77 -48.51,137.63 -48.51,284.4l-206.84 0.03c-1.08,-156.26 34.48,-165.6 -58.91,-279.46l-11.12 1.69c40.87,136.44 36.54,469.19 7.9,609.3z"/>
  <path class="fil11" d="M17173.94 7461.38c79.42,-75.12 48.86,-135.09 48.86,-257.82l212.78 0 0.67 239.2c158.2,17.4 187.91,-24.78 348.81,20.03l4.59 -624.94 -17 4.81c-65.3,119.02 -41.88,136.95 -41.88,274.73l-204.92 -0.06 -17.44 -280.64 -57.54 0 -15.38 280.7 -206.84 0c-0.52,-132.6 20.68,-155.85 -37.47,-274.66l-22.21 -3.52 4.97 622.17z"/>
  <path class="fil31" d="M4789.73 9832.27c5.77,-261.77 -81.25,-650.38 214.32,-649.46 296.16,0.92 208.75,388.97 214.62,651.82l114.64 1.62 6.04 -703.2 -670.52 7.19 10.31 691.63 110.59 0.4z"/>
  <path class="fil11" d="M16202.24 6388.33c28.72,-29.77 43.2,-8.27 55.59,-155.42 1.55,-18.36 -3.78,-88.06 -3.6,-113.71l206.84 0.04 0 281.5c161.76,-65.31 181.68,-64.74 358.65,-37.68l-3.4 -592.74c-112.44,114.86 -18.8,107.24 -51.83,224.05 -20.9,73.96 -74.93,38.81 -185.53,38.81l-0.07 -28.77c-81.18,-58.92 -3.94,-34.04 -28.35,-113.46 -17.28,-56.2 -9.74,-34.8 -39.23,-87.51 -5.98,-10.69 -18.89,-8.93 -23.79,-29.06 -5.1,-20.97 -16.13,-20.81 -26.45,-28.89l0 287.66 -206.99 0.03c0,-111.64 10.72,-203.96 -51.28,-287.69l-0.56 642.84z"/>
  <path class="fil11" d="M16195.39 8510.13c102.97,-4.25 58.69,-112.55 58.69,-233.2l206.99 0.03c0,416.92 -19.31,158.06 350.41,248l15.06 -618.3 -11.43 -1.38c-75.59,122.56 -48.32,139.29 -48.32,286.79l-217.67 -0.01 -5.87 -293.06 -51.01 1.64c-46.47,124.35 -31.17,158.84 -31.17,290.23l-206.51 0.03 -4.51 -286.04 -55.85 0.96c33.84,144.84 43.18,479.88 1.19,604.31z"/>
  <path class="fil32" d="M8324.18 9802.01l97.18 22.3c10.11,-261.47 -82.01,-642.13 214.7,-641.11 294.41,1 204.59,381.73 214.61,641.11l80.52 -4.33c80.36,-120.61 25.77,-490.75 25.48,-667.44 -184.37,-47.07 -451.87,-20.01 -648.97,-20.01l16.48 669.48z"/>
  <path class="fil11" d="M16198.77 9564.06c73.97,-52.1 53.08,93.84 55.46,-251.42l206.84 0.03c0,304.84 -82.64,230.41 361.94,230.41l-6.73 -590.65c-44.96,52.66 -15.14,-2.26 -39.66,74.21 -19.57,61.01 -2.99,-6.12 -11.68,54.66 -3.13,21.88 1.85,116.8 1.88,146.48l-218.65 0c0,-114.1 18.7,-176 -28.19,-268.52 -55.64,46.2 -58.91,-92.03 -58.91,267.32l-206.84 0.03c-0.93,-134.28 23.87,-164.69 -40.42,-280.01l-22.99 1.15c42.39,139.65 36.19,470.82 7.95,616.31z"/>
  <path class="fil33" d="M1016.83 9823.67c165.15,-2.76 56.7,25.46 105.14,-50.58 0,-123.21 -35.89,-351.81 21.81,-442.59l39.7 -111.99c474.36,-144.93 359.12,264.32 366.6,610.95l112.67 -8.68 3.57 -688.23 -653.52 -1.25 4.03 692.37z"/>
  <path class="fil34" d="M3708.95 7922.55l575.09 8.35 -3.43 629.06 -571.93 1.24 0.27 -638.65zm-33.04 722.89l643.39 -1.16c0.58,-180.4 14.52,-707.49 -3.32,-845.97l-636.25 -5.33c-15.6,108.44 -5.74,703.2 -3.82,852.46z"/>
  <path class="fil11" d="M9143.33 9742.83l293.21 6.34c7.45,-108.99 -1.1,-219.76 -0.73,-321.47 0.42,-114.04 15.45,-183.49 -4.55,-303.61l-290.02 0.38 2.09 618.36z"/>
  <path class="fil35" d="M2843.64 9831.83l99.64 0c18.67,-153.33 -27.53,-516.67 56.65,-600.73 116.4,-75.42 315.13,-96.16 372.35,63.23 34.63,96.44 15.8,406.09 20.62,530.37l103.96 -12.75 2.61 -650.16c-195.87,-63.96 -449.45,-27.54 -658.54,-27.54l2.71 697.58z"/>
  <path class="fil34" d="M4710.91 6687.67l586.31 -1.27 -2 209.73 2 230.15 1.52 86.41 -9.11 111.8 -572.44 -3.63 -6.27 -108.27 2.1 -86.32 -2.11 -438.6zm-28.06 718.39l645.45 2.53c2.15,-191.22 15.53,-692.81 0,-852.06l-648.84 0.54 3.39 848.99z"/>
  <polygon class="fil11" points="8929.22,7924.42 8343.25,7927.17 8327.73,8229.1 8942.37,8231.78 "/>
  <polygon class="fil11" points="8941.76,6685.26 8330.27,6687.76 8330.27,6984.39 8942.37,6986.24 "/>
  <polygon class="fil11" points="7920.91,7926.51 7338.87,7925.52 7323.3,8232.15 7932.89,8232.22 "/>
  <polygon class="fil11" points="7932.97,6687.4 7325.89,6686.26 7325.89,6986.55 7934.73,6986.55 "/>
  <polygon class="fil36" points="19176.21,8696.38 19178.1,8198.42 19138.75,8191.01 18820.47,8181.8 18823.12,8703.66 "/>
  <path class="fil34" d="M4711.45 7928.07l583.81 -5.21 0.27 638.34 -578.97 -0.89 -5.11 -632.24zm-29.01 715.09l645.86 2.52c1.93,-149.5 11.78,-744.26 -3.82,-852.19l-640.66 0.66 -1.38 849.01z"/>
  <polygon class="fil21" points="19176.21,8696.38 19528.99,8703.74 19540.49,8193.82 19178.1,8198.42 "/>
  <polygon class="fil37" points="5523.35,9123.41 5826.34,9130.82 5830.19,9410.4 5533.62,9419.14 5531.27,9443.4 5830.17,9452.67 5828.09,9736.08 5528.79,9745.99 5497.69,9837.13 6153.56,9842.55 6127.87,9746.6 5858.94,9744.46 5852.51,9446.2 6124.21,9442.18 6122.48,9419.97 5851.48,9417.06 5864.31,9125.27 6135.95,9124.82 6157.7,8991.16 5500.31,8991.79 "/>
  <polygon class="fil11" points="10149.17,7317.38 10747.43,7317.38 10748.19,7016.79 10149.17,7016.79 "/>
  <polygon class="fil11" points="9146.47,7317.33 9735.52,7316.45 9731.71,7008.61 9159.16,7005.87 "/>
  <polygon class="fil36" points="20656.58,8181.8 20338.3,8189.26 20306.32,8194.71 20308.21,8699.97 20647.04,8704.17 "/>
  <polygon class="fil11" points="10148.94,6982.06 10747.42,6994.86 10747.43,6694.62 10148.67,6692.08 "/>
  <polygon class="fil11" points="7323.89,7308.48 7934.73,7308.52 7929.11,7015.58 7336.79,7015.66 "/>
  <polygon class="fil11" points="8329.31,7304.38 8939.6,7307.94 8936.81,7016.12 8341.66,7015.15 "/>
  <polygon class="fil11" points="9148.63,6993.47 9735.52,6992.7 9735.51,6696.71 9610.45,6694.21 9150.91,6694.62 "/>
  <path class="fil38" d="M9457.73 9442.59l152.73 -0.61 126.08 3.7 -6.37 297.6 -268.22 1.21 -4.17 -115.24 -0.05 -186.66zm10.01 -317.16l263.69 1.93 4.1 290.17 -279.69 1.57 11.9 -293.67zm-326.5 -0.96l290.02 -0.38c20,120.12 4.97,189.57 4.55,303.61 -0.37,101.71 8.18,212.48 0.73,321.47l-293.21 -6.34 -24.93 94.46 646.32 1.92c-31.2,-332.7 -5.84,-526.95 2.16,-846.51l-653.82 7.46 28.18 124.31z"/>
  <polygon class="fil36" points="19908.93,8194.71 19568.12,8194.71 19570.01,8699.97 19902.07,8702.77 "/>
  <polygon class="fil21" points="20278.69,8193.82 19936.56,8193.82 19939.76,8702.71 20267.26,8702.64 "/>
  <path class="fil39" d="M4668.83 9140.24l670.52 -7.19c-69.24,-440.74 -608.75,-442.3 -670.52,7.19z"/>
  <path class="fil40" d="M6502.78 9135.26l663.74 9.81c-53.77,-452.42 -599.61,-451.66 -663.74,-9.81z"/>
  <path class="fil25" d="M14268.79 9098.59c167.85,35.02 495.9,35.02 663.74,0 -64.45,-416.51 -593.35,-418.01 -663.74,0z"/>
  <path class="fil38" d="M9159.16 7005.87l572.55 2.74 3.81 307.84 -589.05 0.88 12.69 -311.46zm-8.25 -311.25l459.54 -0.41 125.06 2.5 0.01 295.99 -586.89 0.77 2.28 -298.85zm-29.29 706.55l636.76 4.72c1.17,-128.47 -15.67,-282.43 -15.76,-423.46 -0.08,-131.08 27.54,-316.43 15.76,-423l-636.77 0.98c-8.28,118.06 18.32,272.29 18.4,421.91 0.08,144.5 -18.56,301.48 -18.39,418.85z"/>
  <path class="fil41" d="M2840.93 9134.25c209.09,0 462.67,-36.42 658.54,27.54 -29.08,-486.16 -620.39,-464.02 -658.54,-27.54z"/>
  <path class="fil25" d="M15267.28 9012.49l-17.58 109.68 591.14 0.48 20.06 -96.96c-17.84,-129.69 -132.6,-226.78 -286.67,-232.39 -83.59,-3.03 -145.05,16.47 -206.69,58.34 -84.68,57.52 -89.63,66.83 -100.26,160.85z"/>
  <path class="fil42" d="M1012.8 9131.3l653.52 1.25c-21.92,-433.29 -628.29,-425.54 -653.52,-1.25z"/>
  <path class="fil43" d="M10126.69 9127.29l650.73 0.21c-23.3,-431.07 -640.27,-425.64 -650.73,-0.21z"/>
  <path class="fil34" d="M4292.5 7318.55l-583.08 5.59 -2.42 -638.98 589.35 13.36 22.94 -137.06 -643.38 -5.46c-15.53,159.78 -2.14,661.37 0,852.34l643.39 -1.16c11.95,-163.03 3.21,-39.93 -26.8,-88.63z"/>
  <polygon class="fil11" points="8334.79,8536.13 8930.66,8536.13 8942.56,8267.55 8325.98,8264.86 "/>
  <polygon class="fil11" points="7329.71,8536.14 7922.41,8536.13 7934.63,8264.41 7325.71,8264.38 "/>
  <path class="fil44" d="M4296.06 9743.43l-354.84 2.69 -231.41 4.09 3.13 -264.95 -2.08 -100.55 -1.45 -228.13c71.47,-70.41 -40.08,-3.27 61.6,-33.86l525.42 -1.47 27.73 -128.43 -654.16 -1.69c5.87,310.57 25.68,529.98 1.98,851.6l654.31 -10.26 -30.23 -89.04z"/>
  <path class="fil38" d="M10149.17 7016.79l599.02 0 -0.76 300.59 -598.26 0 0 -300.59zm-0.5 -324.71l598.76 2.54 -0.01 300.24 -598.48 -12.8 -17.08 414.61 641.87 7.67c-2.87,-127.24 -21.42,-272.51 -21.47,-421.95 -0.04,-151.26 28.05,-304.11 21.47,-414.13l-639.17 -7.73 14.11 131.55z"/>
  <path class="fil45" d="M8307.7 9132.53c197.1,0 464.6,-27.06 648.97,20.01 -35.83,-452.38 -581.52,-453.15 -648.97,-20.01z"/>
  <polygon class="fil11" points="6529.67,6953.81 7140.36,6953.81 7135.39,6693.7 6534.65,6693.98 "/>
  <polygon class="fil11" points="5525.32,6953.81 6129.39,6953.81 6125.14,6694.63 5530.29,6693.7 "/>
  <path class="fil46" d="M5584.03 12718.27l955.5 2.8c146.82,0 213.48,-52.97 272.36,-127.19 -259.69,-7.49 -1029.59,-53.18 -1161.96,53.4 -78.3,63.05 -29.78,26.37 -65.9,70.99z"/>
  <path class="fil46" d="M7620.68 12718.69l956.28 2.38c142.81,0 213.08,-57.69 272.02,-126.43 -255.48,-9.34 -1023.85,-54.94 -1160.85,53.86 -58.18,46.21 -30.16,23.78 -67.45,70.19z"/>
  <path class="fil47" d="M6515.66 9802.01l83.08 -0.05c0,-218.95 -29.9,-448.98 59.05,-604.12 132.44,-40.57 226.42,-43.11 354.04,0 89.47,155.74 57.7,385.31 59.21,604.17l83.5 0 11.98 -656.94 -663.74 -9.81 12.88 666.75z"/>
  <path class="fil46" d="M28174.57 12718.27l953.84 2.8c136.04,0 204.3,-52.8 281.12,-119.07 -175.16,-17.72 -1032.61,-64.33 -1169.95,46.06 -85.78,68.97 -22.76,16.94 -65.01,70.21z"/>
  <path class="fil46" d="M13885.82 12716.75l950.14 4.32c139.68,0 205.57,-49.56 284.04,-119.07 -208.79,-20.82 -1031.08,-63.65 -1170.24,47.56 -56.42,45.08 -39.18,37.71 -63.94,67.19z"/>
  <path class="fil46" d="M20105.44 12720.21c222.18,1.89 444.38,0.65 666.57,0.87 275.18,0.27 407.48,44.63 560.85,-124.83 -129.5,-8.18 -1007.56,-36.67 -1121.54,23.6l-105.88 100.36z"/>
  <path class="fil46" d="M24270.34 12719.88c221.67,2.64 443.41,0.98 665.1,1.2 277.48,0.28 408.61,43.49 562.42,-124.83 -129.1,-8.14 -1009.41,-36.6 -1123.15,23.8l-104.37 99.83z"/>
  <path class="fil46" d="M1677.57 12721.07c223,0 446,-0.23 669,0.01 275.06,0.3 404.66,43.32 560.41,-124.83 -127.25,-8.09 -1009.07,-36.21 -1121.44,22.85l-107.97 101.97z"/>
  <path class="fil46" d="M17798.27 12720.64c223.52,0.91 447.04,0.16 670.55,0.45 276.54,0.35 391.96,39.49 555.64,-123.32 -109.55,-9.43 -1016.4,-33.8 -1120.18,17.91l-106.01 104.96z"/>
  <path class="fil46" d="M26139.38 12717.61l951.14 3.46c141.91,0 202.4,-49.58 283.58,-118.31 -187.17,-19.94 -993.61,-39.43 -1115.39,12.28 -79.69,33.84 -104.19,83.92 -119.33,102.57z"/>
  <path class="fil46" d="M9721.85 12717.61l951.59 3.46c141.45,0 201.94,-49.58 283.12,-118.31 -186.82,-19.9 -994.01,-39.26 -1115.39,12.28 -79.69,33.84 -104.19,83.92 -119.32,102.57z"/>
  <path class="fil46" d="M11848.84 12716.75l950.62 4.32c146.71,0 202.81,-43.57 283.99,-119.07 -193.61,-19.18 -989.06,-40.49 -1114.95,14.55 -33.5,14.65 -25.59,11.77 -54.51,34.52 -140.59,110.62 107.24,-103.15 -32.97,30.82l-32.18 34.86z"/>
  <path class="fil46" d="M22232.68 12720.21c221.76,1.91 443.56,0.66 665.34,0.87 267.34,0.26 420.88,44.21 562.96,-125.68l-978.08 -5.69c-116.19,6.37 -165.04,20.15 -250.22,130.5z"/>
  <path class="fil46" d="M3714.66 12720.64c223.11,0.92 446.22,0.19 669.34,0.45 280.4,0.31 397.24,42.53 558.86,-124.08l-974.14 -7.53c-88.25,3.79 -127.03,-1.12 -202.48,69.78 -54.73,51.43 -3.33,-6.7 -51.58,61.38z"/>
  <path class="fil46" d="M15762.06 12720.64c223.11,0.92 446.22,0.18 669.34,0.45 282.94,0.33 392.19,41.98 558.52,-123.74l-973.89 -7.98c-135.19,5.39 -181.7,25.1 -253.97,131.27z"/>
  <path class="fil11" d="M20518.52 9383.26l637.78 16.62 -1 -218.04c-157.5,0.58 -300.98,0.51 -445.13,-1.43 -213.25,-2.88 -215.59,-11.1 -191.65,202.85z"/>
  <path class="fil11" d="M20653.89 9905.21l487.72 -1.57 12.04 -202.95 -499.76 -2.17c-112.69,0 -148.48,-17.81 -148.48,103.35 0,121.15 35.79,103.34 148.48,103.34z"/>
  <polygon class="fil11" points="20512.54,9621.37 21154.53,9639.36 21156.06,9431.59 20517.75,9428.84 "/>
  <polygon class="fil39" points="4676.36,10237.78 5327.6,10240.97 5327.6,10036.41 4683.03,10049.79 "/>
  <path class="fil11" d="M12300.7 8948.51l-7.19 609.27 43.17 -7.35 0 -261.57 228.02 8.17 -0.58 263.79c113.56,-15.58 87.55,94.54 87.55,-250.51l225.42 -13.68c0.47,312.7 -22.13,221.92 44.68,259.97l-7.31 -606.83c-62.33,107.85 -12.07,169.33 -55.94,294.91l-225.4 0c0,-110.22 2.84,-224.94 -24.16,-302.43l-3.09 -0.16c-26.77,77.63 -23.94,192.49 -23.72,302.59l-225.61 0c-35.38,-107.89 1.66,-198.31 -55.84,-296.17z"/>
  <path class="fil11" d="M12304.98 8528.42l31.7 -19.11 0 -256.16 228.02 8.17 -0.58 257.34c155.72,-13.68 52.59,64.28 92.4,-97.49 0.26,-1.06 -4.85,-131.69 -4.85,-146.57l225.42 -13.67c0.06,110.11 -24.33,194.88 33.2,267.13l15.98 -619.03 -17.3 -2.56 -50.45 302.5 -223.14 -0.05 -12.79 -309.03 -30.13 0 -10.31 309.08 -245.47 0c0,-128.93 16.82,-183.07 -30.59,-302.5l-17.3 2.56 16.19 619.39z"/>
  <polygon class="fil11" points="21787.1,9053.3 22370.2,9053.24 22377.87,8996.31 22377.86,8869.01 21783.8,8869.01 "/>
  <path class="fil46" d="M-104.25 12721.07c326.69,0 698.32,63.5 883.33,-123.39l-883.33 -6.84 0 130.23z"/>
  <path class="fil46" d="M1035.73 6697.91l601.78 -0.52c33.31,-50.06 34.24,-33.41 25.14,-141.85l-645.29 0.55c-11.37,118.56 -3.4,101.76 18.37,141.82z"/>
  <path class="fil46" d="M1036.6 7934.81l601.85 -0.46c36.23,-59.05 30.66,-59.91 21.12,-141.86l-638.61 0.58 15.64 141.74z"/>
  <path class="fil46" d="M31.68 6697.88l601.88 -5.09c16.43,-28.78 15.87,-3 22.29,-57.66 4.14,-35.19 0.24,-39.97 -2.29,-72.22l-645.29 -8.17c-35.94,217.8 3.73,115.47 23.41,143.14z"/>
  <polygon class="fil13" points="17156.14,5760.05 17801.93,5759.83 17804.2,5623.79 17154.83,5623.79 "/>
  <path class="fil48" d="M6534.65 6693.98l600.74 -0.28c28.49,-41.34 35.33,-18.14 23.42,-134.4l-647.43 -2.5c-7.67,74.26 -17.63,78.3 23.27,137.18z"/>
  <path class="fil46" d="M32.1 7935.03l601.59 -5.37c36.52,-67.27 27.83,-31.25 17.81,-130.01l-638.53 -7.92c-8.93,54.75 -28.43,70.31 19.13,143.3z"/>
  <polygon class="fil13" points="13299.7,5754.32 13926.25,5768.65 13954.2,5624.35 13298.55,5624.67 "/>
  <polygon class="fil13" points="12284.58,5759.48 12930.41,5759.48 12933.55,5623.79 12284.56,5623.79 "/>
  <path class="fil48" d="M5530.29 6693.7l594.85 0.93c19.53,-28.8 18.76,2.32 26.99,-59.13 5.29,-39.56 0.38,-41.99 -2.78,-78.45l-642.48 0.53c-7.21,73.95 -17.19,77.19 23.42,136.12z"/>
  <polygon class="fil13" points="16188.28,5760.29 16816.32,5770.32 16841.9,5634.9 16186.8,5622.62 "/>
  <polygon class="fil11" points="5528.79,9745.99 5828.09,9736.08 5830.17,9452.67 5531.27,9443.4 "/>
  <polygon class="fil13" points="13316.62,6843.49 13937.15,6844.58 13945.94,6705.89 13309.34,6706.34 "/>
  <path class="fil48" d="M5528.91 7928.95l599.58 1.11c0.19,-0.32 37.06,22.85 17.59,-135.69l-635.05 0.52c-9.38,64.14 -22.28,72.11 17.88,134.06z"/>
  <path class="fil48" d="M6532.39 7929.58l604.38 -0.63c35.17,-54.26 29.66,-55.01 17.87,-132.38l-639.43 -2.44c-8.29,56.7 -23.41,70.54 17.18,135.45z"/>
  <polygon class="fil11" points="5533.62,9419.14 5830.19,9410.4 5826.34,9130.82 5523.35,9123.41 "/>
  <path class="fil49" d="M7338.87 7925.52l582.04 0.99c25.94,-32.58 44.14,-1.97 23.19,-125.16 -163.05,-11.36 -504.06,-38.15 -636.69,15.41 -7.76,132.58 -7.4,64.1 31.46,108.76z"/>
  <path class="fil50" d="M2866.54 7928.57l607.21 -3.14c38.69,-63.91 28.74,-29.13 16.49,-127.95l-638.04 -5.25c-14.38,103.88 -24.54,67.23 14.34,136.34z"/>
  <path class="fil50" d="M2873.12 6691.14l594.21 -2.9c31.54,-38.92 17.07,20.02 28.43,-53.71 5.93,-38.47 0.58,-39.34 -2.59,-74.15l-644.75 -5.39c-8.14,84.15 -16.19,83.01 24.7,136.15z"/>
  <path class="fil50" d="M1857.95 7929.28l611.85 -3.85 17.39 -127.88 -643.34 -5.31c-7.41,46.68 -15.11,26.35 -7.37,80.26 13,90.55 11.61,39.84 21.47,56.78z"/>
  <polygon class="fil13" points="14290.82,6842.79 14905.69,6840.35 14921.05,6708.62 14283.76,6706.07 "/>
  <path class="fil50" d="M1846.8 6687.1l617.15 1.3c16.3,-25.64 15.31,3.94 22.44,-53.85 4.28,-34.68 0.39,-42.1 -1.8,-74.29l-645.01 -5.26 7.22 132.1z"/>
  <path class="fil51" d="M9142.7 7931.69l599.88 -3.16c35.64,-62.67 29.26,-16.06 22.42,-119.63l-643.02 -16.01c-11.51,112.67 -19.88,70.68 20.72,138.8z"/>
  <polygon class="fil13" points="14274.5,5755.61 14920.58,5753.38 14924.76,5629.17 14272.87,5624.07 "/>
  <polygon class="fil13" points="13317.87,7906.4 13942.15,7904.65 13953.59,7775.93 13294.82,7776.79 "/>
  <polygon class="fil52" points="16201.99,6834.83 16254.08,6842.5 16476.14,6837.3 16549.36,6836.01 16815.11,6842.12 16820.42,6840.12 16837.11,6710.54 16187.38,6706.65 "/>
  <polygon class="fil11" points="9457.78,9629.25 9461.95,9744.49 9730.17,9743.28 9736.54,9445.68 9610.46,9441.98 9457.73,9442.59 "/>
  <polygon class="fil13" points="12288.79,7909.03 12306.09,7906.47 12592.46,7899.89 12622.59,7899.89 12908.97,7906.47 12926.27,7909.03 12938.11,7775.95 12279.03,7775.81 "/>
  <polygon class="fil13" points="13302.56,8943.15 13944.79,8947.67 13950.72,8817.31 13298.55,8818.14 "/>
  <path class="fil11" d="M7592.22 9115.24l-237.65 -0.79c-44.07,119.01 -28.68,174.7 -28.68,301.62l289.67 0 -23.34 -300.83z"/>
  <polygon class="fil13" points="17168.97,6839.21 17191.18,6842.73 17450.87,6836.69 17508.41,6836.69 17772.65,6842.66 17789.65,6837.85 17806.67,6713.27 17157.83,6705.57 "/>
  <polygon class="fil13" points="17158.62,8948.84 17169.74,8947.15 17484,8942.18 17799.56,8948.59 17804.64,8817.29 17155.75,8817.26 "/>
  <polygon class="fil13" points="17162.01,7906.92 17185.87,7905.41 17462.06,7900.04 17796.29,7907.38 17808.94,7775.96 17151.14,7775.81 "/>
  <polygon class="fil13" points="12296.92,6838.8 12314.51,6842.66 12563.38,6835.22 12651.67,6835.4 12900.54,6842.66 12918.06,6838.76 12934.45,6712.36 12285.49,6705.68 "/>
  <polygon class="fil13" points="15244.14,6841.93 15250.42,6842.12 15516.78,6836.43 15588.51,6837.27 15811.46,6841.48 15863.62,6834.77 15883.86,6715.3 15234.8,6704.54 "/>
  <path class="fil11" d="M7904.91 9114.73l-232.99 0.51 -28 300.61 288.97 0.22c0.08,-126.03 15.11,-182.9 -27.98,-301.34z"/>
  <polygon class="fil13" points="16194.2,7905.82 16250.05,7904.86 16492.24,7900.64 16543.25,7899 16815.11,7905.28 16826.54,7906.66 16838.88,7775.96 16182.25,7775.81 "/>
  <polygon class="fil11" points="6127.87,9746.6 6124.21,9442.18 5852.51,9446.2 5858.94,9744.46 "/>
  <path class="fil49" d="M8343.25 7927.17l585.97 -2.75c45.53,-66.14 35.01,-24.35 19.05,-123.5l-630.16 -4.82c-21.37,121.23 -27.63,68.63 25.14,131.07z"/>
  <path class="fil51" d="M10147.1 7925.03l604.24 3.99c38.96,-63.92 31.65,-19.38 22.27,-125.26l-643.41 -9.32 16.9 130.59z"/>
  <polygon class="fil13" points="15230.2,5747.76 15877.67,5757.84 15872.08,5633.52 15228.62,5624.68 "/>
  <polygon class="fil11" points="6122.48,9419.97 6135.95,9124.82 5864.31,9125.27 5851.48,9417.06 "/>
  <polygon class="fil13" points="14292.14,7905.46 14904.6,7903.11 14929.14,7782.19 14269.22,7776.11 "/>
  <polygon class="fil11" points="9455.84,9419.1 9735.53,9417.53 9731.43,9127.36 9467.74,9125.43 "/>
  <path class="fil27" d="M31.85 9123.26l247.91 -6.85 358.1 -0.58 22.63 -114.87 -659.09 -12.1c0,17.3 -0.73,53.97 2.03,64.45 24.79,94.46 15.76,47.23 28.42,69.95z"/>
  <polygon class="fil13" points="16190.82,8947.75 16213.81,8946.6 16821.08,8942.42 16840.02,8828 16186.8,8816.1 "/>
  <polygon class="fil1" points="1840.13,9112.54 2474.41,9112.71 2488.3,8992.16 1831.21,8990.61 "/>
  <polygon class="fil11" points="7327.88,9715.6 7609.86,9719.51 7616.44,9448.24 7326.64,9448.23 "/>
  <polygon class="fil32" points="8330.27,6687.76 8941.76,6685.26 8954.29,6565.63 8316.42,6561.05 "/>
  <polygon class="fil32" points="7325.89,6686.26 7932.97,6687.4 7950.57,6565.65 7312.66,6561.71 "/>
  <path class="fil53" d="M7354.57 9114.45l237.65 0.79 79.7 0 232.99 -0.51c57.33,-49.88 47.25,71.97 47.25,-89.65 -67.33,-45.05 -31.25,-28.01 -140.47,-32.43 -101.67,-4.11 -429.66,-14.07 -506.34,32.43 0,165.56 -9.97,33.31 49.22,89.37z"/>
  <polygon class="fil11" points="7650.52,9715.59 7927.83,9719.55 7933.76,9448.24 7648.68,9448.23 "/>
  <polygon class="fil13" points="12296.43,8940.73 12605.87,8942.09 12608.96,8942.25 12918.62,8940.67 12936.62,8831.59 12279.03,8819.03 "/>
  <path class="fil54" d="M28095.08 9427.86c0,208.73 113.46,71.26 352.53,111.94l22.86 -158.16c-418.38,-32.82 -319.01,9.21 -375.39,46.22z"/>
  <path class="fil55" d="M28157.71 9085.03c47.74,-45.33 43,107.19 47.35,-112.41l-1.91 107.47 271.06 13.02 -12.61 -159.31 -307.76 5.51 3.87 145.72z"/>
  <path class="fil55" d="M28207.3 9191.18l-10.06 95.3 188.55 26.95 -14.23 -147.6c-74.51,0.99 -75.11,-16.5 -164.26,25.35z"/>
  <polygon class="fil5" points="28157.71,9085.03 28153.84,8939.31 28044.77,8940.33 28046.14,9078.39 "/>
  <path class="fil11" d="M16857.53 7760.44l-680.55 -0.56c37.65,298.25 18.66,632.28 -2.72,874.7l685.55 8.59c-33.29,-237.8 -6.42,-862.87 -2.28,-882.73z"/>
  <path class="fil11" d="M17818.68 7765.83l-680.56 -0.56c37.66,298.26 18.67,632.29 -2.71,874.71l685.55 8.58c-33.3,-237.8 -6.42,-862.87 -2.28,-882.73z"/>
  <path class="fil11" d="M17827.29 6702.83l-680.56 -0.56c37.66,298.25 18.67,632.28 -2.71,874.71l685.55 8.58c-33.3,-237.8 -6.42,-862.87 -2.28,-882.73z"/>
  <path class="fil11" d="M16843.68 6699.83l-680.55 -0.56c37.65,298.25 18.66,632.28 -2.72,874.71l685.55 8.58c-33.29,-237.8 -6.42,-862.87 -2.28,-882.73z"/>
  <path class="fil11" d="M15896.38 6700.13l-680.55 -0.56c37.66,298.25 18.66,632.29 -2.72,874.71l685.56 8.58c-33.3,-237.8 -6.43,-862.87 -2.29,-882.73z"/>
  <path class="fil11" d="M16857.53 7760.44l-680.55 -0.56c37.65,298.25 18.66,632.28 -2.72,874.7l685.55 8.59c-33.29,-237.8 -6.42,-862.87 -2.28,-882.73z"/>
  <path class="fil11" d="M14938.01 6694.44l-680.55 -0.57c37.66,298.26 18.66,632.29 -2.72,874.71l685.55 8.58c-33.29,-237.79 -6.42,-862.87 -2.28,-882.72z"/>
  <path class="fil11" d="M13960.25 6697.13l-680.55 -0.56c37.65,298.26 18.66,632.29 -2.72,874.71l685.55 8.58c-33.29,-237.8 -6.42,-862.87 -2.28,-882.73z"/>
  <path class="fil11" d="M12957.45 6704.92l-680.55 -0.57c37.66,298.26 18.66,632.29 -2.72,874.71l685.55 8.58c-33.29,-237.79 -6.42,-862.87 -2.28,-882.72z"/>
  <path class="fil11" d="M12943.72 5620.34l-680.55 -0.56c37.65,298.25 18.66,632.28 -2.72,874.7l685.55 8.59c-33.29,-237.8 -6.42,-862.87 -2.28,-882.73z"/>
  <path class="fil11" d="M13963.02 5620.35l-680.55 -0.57c37.65,298.26 18.66,632.29 -2.72,874.71l685.55 8.58c-33.29,-237.8 -6.42,-862.87 -2.28,-882.72z"/>
  <path class="fil11" d="M14938.01 5620.35l-680.55 -0.57c37.66,298.26 18.66,632.29 -2.72,874.71l685.55 8.58c-33.29,-237.8 -6.42,-862.87 -2.28,-882.72z"/>
  <path class="fil11" d="M15896.38 5614.65l-680.55 -0.56c37.66,298.25 18.66,632.28 -2.72,874.7l685.56 8.59c-33.3,-237.8 -6.43,-862.87 -2.29,-882.73z"/>
  <path class="fil11" d="M16849.52 5620.35l-680.55 -0.57c37.65,298.26 18.66,632.29 -2.72,874.71l685.55 8.58c-33.29,-237.8 -6.42,-862.87 -2.28,-882.72z"/>
  <path class="fil11" d="M17818.66 5614.95l-680.55 -0.56c37.66,298.25 18.67,632.28 -2.71,874.7l685.55 8.59c-33.3,-237.8 -6.42,-862.87 -2.29,-882.73z"/>
  <path class="fil11" d="M14938.01 7768.53l-680.55 -0.56c37.66,298.25 18.66,632.29 -2.72,874.71l685.55 8.58c-33.29,-237.8 -6.42,-862.87 -2.28,-882.73z"/>
  <path class="fil11" d="M13957.48 7757.74l-680.55 -0.57c37.66,298.26 18.67,632.29 -2.72,874.71l685.56 8.58c-33.3,-237.79 -6.43,-862.87 -2.29,-882.72z"/>
  <path class="fil11" d="M12943.41 7768.53l-680.55 -0.56c37.66,298.25 18.66,632.29 -2.72,874.71l685.56 8.58c-33.3,-237.8 -6.43,-862.87 -2.29,-882.73z"/>
  <path class="fil11" d="M16846.79 8814.66l-673.67 -0.55c37.27,293.7 18.47,622.64 -2.69,861.36l678.61 8.45c-32.95,-234.17 -6.35,-849.7 -2.25,-869.26z"/>
  <path class="fil11" d="M17815.32 8814.66l-673.66 -0.56c37.27,293.71 18.47,622.64 -2.7,861.37l678.62 8.45c-32.96,-234.17 -6.36,-849.71 -2.26,-869.26z"/>
  <path class="fil11" d="M13954.92 8812.3l-673.66 -0.55c37.27,293.7 18.47,622.64 -2.7,861.36l678.62 8.45c-32.96,-234.17 -6.36,-849.7 -2.26,-869.26z"/>
  <path class="fil11" d="M12945.9 8814.66l-673.66 -0.56c37.27,293.71 18.47,622.64 -2.69,861.37l678.61 8.45c-32.96,-234.17 -6.36,-849.71 -2.26,-869.26z"/>
  <polygon class="fil0" points="1855.96,9767.57 2155.26,9757.67 2157.34,9474.25 1858.44,9464.98 "/>
  <polygon class="fil0" points="4031.58,9740.59 4271.84,9732.63 4273.51,9505.12 4033.57,9497.69 "/>
  <polygon class="fil0" points="378.73,9709.74 610.14,9702.07 611.75,9482.94 380.65,9475.78 "/>
  <polygon class="fil0" points="367.82,9385.89 604.57,9378.05 606.22,9153.87 369.78,9146.54 "/>
 </g>
</svg>
